<svg xmlns="http://www.w3.org/2000/svg" width="39" height="36" fill="none" viewBox="0 0 39 36"><path fill="red" d="M12 6H9v3h3zM9 6H6v3h3zM12 9H9v3h3zM15 12h-3v3h3zM18 9h-3v3h3zM15 6h-3v3h3zM9 9H6v3h3zM9 12H6v3h3zM9 15H6v3h3zM6 9H3v3h3zM6 12H3v3h3zM6 15H3v3h3zM18 6h-3v3h3zM12 15H9v3h3zM12 18H9v3h3zM15 15h-3v3h3zM15 18h-3v3h3zM15 21h-3v3h3zM18 15h-3v3h3zM18 12h-3v3h3zM18 21h-3v3h3zM18 18h-3v3h3zM18 24h-3v3h3zM27 6h3v3h-3zM30 6h3v3h-3zM27 9h3v3h-3zM24 9h3v3h-3zM27 12h3v3h-3zM24 12h3v3h-3zM21 9h3v3h-3zM24 6h3v3h-3zM30 9h3v3h-3zM33 9h3v3h-3zM33 12h3v3h-3zM33 15h3v3h-3zM30 12h3v3h-3zM30 15h3v3h-3zM21 6h3v3h-3zM12 3H9v3h3zM15 3h-3v3h3zM18 3h-3v3h3zM27 3h3v3h-3zM24 3h3v3h-3zM21 3h3v3h-3zM27 15h3v3h-3zM27 18h3v3h-3zM24 15h3v3h-3zM24 18h3v3h-3zM24 21h3v3h-3zM21 15h3v3h-3zM21 12h3v3h-3zM21 21h3v3h-3zM21 18h3v3h-3zM21 24h3v3h-3zM21 9h-3v3h3zM21 6h-3v3h3zM21 15h-3v3h3zM21 12h-3v3h3zM21 21h-3v3h3zM21 18h-3v3h3zM21 24h-3v3h3zM21 27h-3v3h3zM21 30h-3v3h3zM30 18h3v3h-3zM27 21h3v3h-3zM24 24h3v3h-3zM24 27h-3v3h3zM9 18H6v3h3zM12 21H9v3h3zM15 24h-3v3h3zM18 27h-3v3h3z"/></svg>